<svg xmlns="http://www.w3.org/2000/svg" width="34" height="34" viewBox="0 0 34 34">
    <g fill="#FFF" fill-rule="nonzero">
        <path d="M17 33.273c8.987 0 16.273-7.286 16.273-16.273S25.987.727 17 .727.727 8.013.727 17 8.013 33.273 17 33.273zm0-2c-7.883 0-14.273-6.39-14.273-14.273S9.117 2.727 17 2.727 31.273 9.117 31.273 17 24.883 31.273 17 31.273z"/>
        <path d="M18 17v-5.455a1 1 0 0 0-2 0V17a1 1 0 0 0 2 0z"/>
        <path d="M16.293 17.707l6.817 6.819a1 1 0 1 0 1.415-1.414l-6.818-6.819a1 1 0 0 0-1.414 1.414z"/>
    </g>
</svg>
