<svg xmlns="http://www.w3.org/2000/svg" width="11" height="20" viewBox="0 0 11 20">
    <path fill="#5E4DFF" fill-rule="nonzero" d="M7.927 6.063V5.38a1.016 1.016 0 0 1-.002-.075h2.038a.75.75 0 0 0 .75-.75v-3a.75.75 0 0 0-.75-.75H6.948C4.168.805 2.944 2.72 2.944 5.2v.862h-1.34a.75.75 0 0 0-.75.75v3c0 .415.337.75.75.75h1.34v7.876c0 .414.336.75.75.75h3.482a.75.75 0 0 0 .75-.75v-7.875H9.86a.75.75 0 0 0 .746-.68l.286-3a.75.75 0 0 0-.747-.82H7.927zm1.25 3h-2a.75.75 0 0 0-.75.75v7.874H4.445V9.813a.75.75 0 0 0-.75-.75h-1.34v-1.5h1.34a.75.75 0 0 0 .75-.75V5.2c0-1.754.73-2.895 2.502-2.895h2.266v1.5h-1.34a1.422 1.422 0 0 0-1.091.512c-.264.312-.39.723-.351 1.133l-.004 1.362c0 .415.336.75.75.75H9.32l-.142 1.5z"/>
</svg>
