<svg xmlns="http://www.w3.org/2000/svg" xmlns:xlink="http://www.w3.org/1999/xlink" width="24" height="24" viewBox="0 0 24 24">
    <defs>
        <path id="a" d="M.073 12.073c0 6.592 5.343 11.935 11.935 11.935 6.592 0 11.936-5.343 11.936-11.935C23.944 5.48 18.6.137 12.008.137S.073 5.481.073 12.073z"/>
    </defs>
    <g fill="none" fill-rule="evenodd">
        <mask id="b" fill="#fff">
            <use xlink:href="#a"/>
        </mask>
        <path fill="#00B800" d="M-10.992 26.935h46v-30h-46z" mask="url(#b)"/>
        <path fill="#FFE61F" d="M26.856 11.935l-14.85 9.478-14.846-9.478 14.847-9.477z" mask="url(#b)"/>
        <path fill="#FFF" d="M5.635 10.473c0 .001 0 .001 0 0" mask="url(#b)"/>
        <path fill="#004DAE" d="M12.449 9.83c3.078.874 4.832 2.252 5.692 2.995A6.196 6.196 0 0 0 6.334 9.442c.8-.128 3.287-.414 6.115.389m-6.444.563a6.197 6.197 0 0 0 11.918 3.392c-.668-.62-2.659-2.27-5.7-3.115-2.827-.763-5.314-.451-6.218-.277" mask="url(#b)"/>
        <path fill="#FFF" d="M12.449 9.83c-2.828-.802-5.315-.516-6.115-.388a6.114 6.114 0 0 0-.329.952c.904-.174 3.391-.486 6.219.276 3.04.847 5.03 2.497 5.7 3.116.097-.31.17-.632.217-.961-.86-.743-2.614-2.121-5.692-2.994" mask="url(#b)"/>
    </g>
</svg>
