<svg xmlns="http://www.w3.org/2000/svg" xmlns:xlink="http://www.w3.org/1999/xlink" width="24" height="24" viewBox="0 0 24 24">
    <defs>
        <path id="a" d="M.072 11.96c0 6.534 5.297 11.831 11.832 11.831 6.534 0 11.831-5.297 11.831-11.831 0-6.535-5.297-11.832-11.831-11.832C5.369.128.072 5.425.072 11.96z"/>
        <path id="c" d="M.072 11.96c0 6.534 5.297 11.831 11.832 11.831 6.534 0 11.831-5.297 11.831-11.831 0-6.535-5.297-11.832-11.831-11.832C5.369.128.072 5.425.072 11.96z"/>
        <path id="e" d="M.072 11.96c0 6.534 5.297 11.831 11.832 11.831 6.534 0 11.831-5.297 11.831-11.831 0-6.535-5.297-11.832-11.831-11.832C5.369.128.072 5.425.072 11.96z"/>
        <path id="g" d="M.072 11.96c0 6.534 5.297 11.831 11.832 11.831 6.534 0 11.831-5.297 11.831-11.831 0-6.535-5.297-11.832-11.831-11.832C5.369.128.072 5.425.072 11.96z"/>
        <path id="i" d="M.072 11.96c0 6.534 5.297 11.831 11.832 11.831 6.534 0 11.831-5.297 11.831-11.831 0-6.535-5.297-11.832-11.831-11.832C5.369.128.072 5.425.072 11.96z"/>
    </defs>
    <g fill="none" fill-rule="evenodd">
        <g transform="translate(0 .081)">
            <mask id="b" fill="#fff">
                <use xlink:href="#a"/>
            </mask>
            <path fill="#0034A4" d="M-5.843.128H29.65v23.663H-5.843z" mask="url(#b)"/>
        </g>
        <g transform="translate(0 .081)">
            <mask id="d" fill="#fff">
                <use xlink:href="#c"/>
            </mask>
            <path fill="#FCF9F8" d="M29.651 20.864l-13.357-8.905 13.357-8.904V.128h-4.39L11.903 9.032-1.453.128h-4.39v2.927L7.512 11.96l-13.357 8.905v2.927h4.391l13.357-8.904L25.26 23.79h4.391z" mask="url(#d)"/>
        </g>
        <g transform="translate(0 .081)">
            <mask id="f" fill="#fff">
                <use xlink:href="#e"/>
            </mask>
            <path fill="#FF0604" d="M29.651 22.693l-16.1-10.734 16.1-10.733V.128h-1.646L11.904 10.862-4.197.128h-1.647v1.098l16.101 10.733-16.1 10.734v1.098h1.646l16.1-10.734 16.102 10.734h1.646z" mask="url(#f)"/>
        </g>
        <g transform="translate(0 .081)">
            <mask id="h" fill="#fff">
                <use xlink:href="#g"/>
            </mask>
            <path fill="#FCF9F8" d="M8.972.128h5.864V8.05H29.65v7.819H14.836v7.922H8.972V15.87H-5.844V8.05H8.972z" mask="url(#h)"/>
        </g>
        <g transform="translate(0 .081)">
            <mask id="j" fill="#fff">
                <use xlink:href="#i"/>
            </mask>
            <path fill="#FF0604" d="M13.734.128V9.52h15.917v4.88H13.734v9.392h-3.66V14.4H-5.843V9.52h15.917V.127h1.83z" mask="url(#j)"/>
        </g>
    </g>
</svg>
