<svg xmlns="http://www.w3.org/2000/svg" width="20" height="20" viewBox="0 0 20 20">
    <path fill="#5E4DFF" fill-rule="nonzero" d="M5.446 6.55a.75.75 0 0 1 .75.75v11.397a.75.75 0 0 1-.75.75h-3.81a.75.75 0 0 1-.75-.75V7.3a.75.75 0 0 1 .75-.75h3.81zm9.59-.008c3.044 0 4.96 2.42 4.96 6.322v5.833a.75.75 0 0 1-.75.75h-4.21a.75.75 0 0 1-.75-.75v-5.935a1.041 1.041 0 0 0-.282-.722.9.9 0 0 0-.566-.28.758.758 0 0 1-.08.005c-.506 0-.929.44-.929 1v5.932a.75.75 0 0 1-.75.75H7.673a.75.75 0 0 1-.75-.75V7.3a.75.75 0 0 1 .75-.75h4.006c.378 0 .69.28.743.642a5.893 5.893 0 0 1 2.613-.65zM4.695 8.05h-2.31v9.897h2.31V8.05zm10.35-.008a4.423 4.423 0 0 0-2.87 1.121.75.75 0 0 1-1.247-.562V8.05H8.423v9.897h2.506v-5.182c0-1.328 1.01-2.425 2.294-2.497a.754.754 0 0 1 .134-.012c.653 0 1.277.27 1.732.748.45.472.7 1.106.696 1.761v5.182h2.71v-5.083c0-3.14-1.33-4.822-3.45-4.822zM3.561.56C5 .573 6.157 1.732 6.245 3.179a.752.752 0 0 1 .021.177c0 1.537-1.206 2.796-2.71 2.796S.846 4.893.846 3.356 2.052.561 3.562.561zm-.006 1.5c-.66 0-1.21.573-1.21 1.295 0 .723.55 1.296 1.21 1.296.623 0 1.146-.509 1.205-1.172a.755.755 0 0 1-.01-.124c0-.718-.544-1.29-1.195-1.295z"/>
</svg>
