<?xml version="1.0" encoding="utf-8"?>
<!-- Generator: Adobe Illustrator 21.0.0, SVG Export Plug-In . SVG Version: 6.00 Build 0)  -->
<svg xmlns="http://www.w3.org/2000/svg" xmlns:xlink="http://www.w3.org/1999/xlink" width="169" height="32" viewBox="0 0 169 32">
    <defs>
        <path id="a" d="M0 .227h22.43V19.87H0z"/>
        <path id="c" d="M0 .227h22.43v31.258H0z"/>
        <path id="e" d="M0 .227h11.62v16.194H0z"/>
        <path id="g" d="M0 31.726h172.94V.468H0z"/>
    </defs>
    <g fill="none" fill-rule="evenodd">
        <g transform="translate(0 .24)">
            <mask id="b" fill="#fff">
                <use xlink:href="#a"/>
            </mask>
            <path fill="#5E4DFF" d="M22.43 10.11c0-5.436-4.447-9.883-9.882-9.883H0L14.095 19.87c4.707-.748 8.336-4.85 8.336-9.76" mask="url(#b)"/>
        </g>
        <g transform="translate(0 .24)">
            <mask id="d" fill="#fff">
                <use xlink:href="#c"/>
            </mask>
            <path fill="#8173FF" d="M11.62 31.486h10.81L14.096 19.87 0 .226v15.066l8.663 12.073z" mask="url(#d)"/>
        </g>
        <g transform="translate(0 15.305)">
            <mask id="f" fill="#fff">
                <use xlink:href="#e"/>
            </mask>
            <path fill="#A59CFF" d="M0 16.421h11.62l-2.956-4.12L0 .227v4.7z" mask="url(#f)"/>
        </g>
        <path id="text-1" fill="#06012E" d="M52.348 15.085c2.64 0 4.353-1.534 4.353-3.853 0-2.355-1.713-3.89-4.353-3.89h-4.602v7.743h4.602zm-1.462 3.783h-3.14v9.99h-4.317V3.56h9.704c4.888 0 7.92 3.39 7.92 7.67 0 3.604-2.176 6.351-5.708 7.208l5.708 10.418h-4.852l-5.315-9.99zM76.074 18.26c-.072-2.033-1.427-3.853-4.282-3.853-2.604 0-4.102 1.998-4.246 3.854h8.528zm3.96 5.637c-.928 3.033-3.675 5.494-7.85 5.494-4.709 0-8.883-3.424-8.883-9.311 0-5.494 4.068-9.134 8.456-9.134 5.351 0 8.491 3.532 8.491 9.027 0 .678-.071 1.249-.108 1.32h-12.7c.106 2.64 2.175 4.531 4.744 4.531 2.498 0 3.783-1.32 4.353-3.032l3.497 1.105z"/>
        <mask id="h" fill="#fff">
            <use xlink:href="#g"/>
        </mask>
        <path id="text-2" fill="#06012E" d="M84.208 28.857h4.103V11.482h-4.103v17.375zM86.24 2.669a2.71 2.71 0 0 1 2.712 2.711c0 1.5-1.213 2.676-2.712 2.676a2.672 2.672 0 0 1-2.676-2.676c0-1.498 1.214-2.71 2.676-2.71zM98.906 11.482h3.604v3.674h-3.604v8.063c0 1.534.678 2.177 2.212 2.177.571 0 1.25-.107 1.427-.143v3.426c-.249.107-1.034.391-2.532.391-3.212 0-5.21-1.925-5.21-5.173v-8.74h-3.21v-3.675h.891c1.856 0 2.676-1.178 2.676-2.713V6.166h3.746v5.316zM117.994 18.26c-.072-2.033-1.426-3.853-4.281-3.853-2.605 0-4.102 1.998-4.247 3.854h8.528zm3.96 5.637c-.928 3.033-3.675 5.494-7.85 5.494-4.709 0-8.882-3.424-8.882-9.311 0-5.494 4.066-9.134 8.455-9.134 5.352 0 8.491 3.532 8.491 9.027 0 .678-.071 1.249-.107 1.32H109.36c.106 2.64 2.176 4.531 4.744 4.531 2.5 0 3.783-1.32 4.354-3.032l3.497 1.105zM136.296 15.584a9.063 9.063 0 0 0-1.356-.107c-3.21 0-4.673 1.856-4.673 5.103v8.277h-4.14V11.482h4.032v2.783c.821-1.892 2.747-2.997 5.03-2.997.5 0 .93.071 1.107.107v4.21zM149.71 21.65v-.785l-4.53.678c-1.285.213-2.32.927-2.32 2.354 0 1.178.892 2.248 2.533 2.248 2.32 0 4.317-1.106 4.317-4.496m-5.744-2.746l4.46-.678c.999-.143 1.284-.643 1.284-1.25 0-1.462-1-2.64-3.283-2.64-2.176 0-3.388 1.393-3.567 3.14l-3.781-.856c.32-2.997 3.032-5.672 7.312-5.672 5.353 0 7.386 3.032 7.386 6.493v8.634c0 1.57.178 2.605.214 2.782h-3.853c-.035-.106-.179-.82-.179-2.21-.82 1.32-2.532 2.745-5.351 2.745-3.64 0-5.887-2.497-5.887-5.244 0-3.104 2.283-4.817 5.245-5.244M168.94 15.584a9.063 9.063 0 0 0-1.356-.107c-3.211 0-4.674 1.856-4.674 5.103v8.277h-4.139V11.482h4.032v2.783c.82-1.892 2.746-2.997 5.03-2.997.5 0 .929.071 1.107.107v4.21z" mask="url(#h)"/>
    </g>
</svg>
