<svg xmlns="http://www.w3.org/2000/svg" width="34" height="34" viewBox="0 0 34 34">
    <g fill="#FFF" fill-rule="nonzero">
        <path d="M17 34c9.389 0 17-7.611 17-17S26.389 0 17 0 0 7.611 0 17s7.611 17 17 17zm0-2C8.716 32 2 25.284 2 17 2 8.716 8.716 2 17 2c8.284 0 15 6.716 15 15 0 8.284-6.716 15-15 15z"/>
        <path d="M12.53 22.884l10.559-10.56a1 1 0 1 0-1.414-1.414L11.116 21.47a1 1 0 0 0 1.414 1.414zM10.667 11.994a1.533 1.533 0 1 0 3.066 0 1.533 1.533 0 0 0-3.066 0zM20.471 21.8a1.533 1.533 0 1 0 3.067 0 1.533 1.533 0 0 0-3.067 0z"/>
    </g>
</svg>
