<svg xmlns="http://www.w3.org/2000/svg" width="20" height="20" viewBox="0 0 20 20">
    <path fill="#5E4DFF" fill-rule="nonzero" d="M12.053 18.95l.01.005c2.021 1.288 4.698.995 6.414-.721l.62-.62a2.227 2.227 0 0 0 0-3.147l-2.61-2.607a2.227 2.227 0 0 0-3.147 0 .725.725 0 0 1-1.025 0L8.14 7.687a.727.727 0 0 1 0-1.027 2.224 2.224 0 0 0 0-3.147L5.532.902a2.227 2.227 0 0 0-3.147 0l-.62.619a5.178 5.178 0 0 0-.707 6.44l.015.022a40.699 40.699 0 0 0 10.937 10.94l.042.027zM2.32 7.147l-.004-.005a3.673 3.673 0 0 1 .51-4.56l.62-.62a.727.727 0 0 1 1.027 0l2.607 2.61a.725.725 0 0 1 0 1.026 2.227 2.227 0 0 0 0 3.148l4.174 4.175a2.224 2.224 0 0 0 3.147 0 .726.726 0 0 1 1.026 0l2.609 2.607a.726.726 0 0 1 0 1.026l-.62.62a3.676 3.676 0 0 1-4.573.5A39.195 39.195 0 0 1 2.32 7.148z"/>
</svg>
