<svg xmlns="http://www.w3.org/2000/svg" width="34" height="34" viewBox="0 0 34 34">
    <g fill="#FFF" fill-rule="nonzero">
        <path d="M17 34c9.389 0 17-7.611 17-17S26.389 0 17 0 0 7.611 0 17s7.611 17 17 17zm0-2C8.716 32 2 25.284 2 17 2 8.716 8.716 2 17 2c8.284 0 15 6.716 15 15 0 8.284-6.716 15-15 15z"/>
        <path d="M21.571 9.143h-6.416c-.952-.08-1.968.295-2.7 1.026a3.533 3.533 0 0 0-1.023 2.78c-.003 1.73 1.196 2.683 5.068 4.917 2.985 1.722 4.071 2.585 4.071 3.265a1.677 1.677 0 0 1-1.708 1.726H12.43a1 1 0 1 0 0 2h6.416a3.677 3.677 0 0 0 3.726-3.744c0-1.792-1.199-2.745-5.071-4.98-2.985-1.72-4.071-2.584-4.071-3.264-.04-.527.123-.968.44-1.285.318-.318.759-.48 1.206-.444l6.496.003a1 1 0 1 0 0-2z"/>
        <path d="M18 10.143V6.714a1 1 0 0 0-2 0v3.429a1 1 0 0 0 2 0zM18 27.286v-3.429a1 1 0 1 0-2 0v3.429a1 1 0 0 0 2 0z"/>
    </g>
</svg>
