<svg xmlns="http://www.w3.org/2000/svg" width="14" height="20" viewBox="0 0 14 20">
    <path fill="#5E4DFF" fill-rule="nonzero" d="M6.517 10.563v1.124c0 .838.626 1.5 1.375 1.5h3.223c1.598 0 2.875 1.353 2.875 3 0 1.648-1.277 3-2.875 3H7.184c-3.554 0-6.417-3.03-6.417-6.75V3.813c0-1.648 1.277-3 2.875-3s2.875 1.352 2.875 3v.75h4.598c1.598 0 2.875 1.352 2.875 3 0 1.647-1.277 3-2.875 3H6.517zm-4.25-6.75v8.624c0 2.91 2.211 5.25 4.917 5.25h3.931c.75 0 1.375-.662 1.375-1.5 0-.837-.625-1.5-1.375-1.5H7.892c-1.598 0-2.875-1.352-2.875-3V9.813a.75.75 0 0 1 .75-.75h5.348c.75 0 1.375-.663 1.375-1.5 0-.838-.625-1.5-1.375-1.5H5.767a.75.75 0 0 1-.75-.75v-1.5c0-.838-.625-1.5-1.375-1.5s-1.375.662-1.375 1.5z"/>
</svg>
