<svg xmlns="http://www.w3.org/2000/svg" width="20" height="20" viewBox="0 0 20 20">
    <path fill="#5E4DFF" fill-rule="nonzero" d="M19.889 10.003a9.827 9.827 0 0 1-14.915 8.328l-3.15.999a.75.75 0 0 1-.938-.955l1.007-2.985A9.621 9.621 0 0 1 .25 9.993C.279 4.59 4.676.232 10.078.25c5.395-.008 9.782 4.348 9.81 9.753zM1.75 9.998a8.118 8.118 0 0 0 1.58 4.827.75.75 0 0 1 .106.684l-.656 1.944 2.073-.658a.75.75 0 0 1 .638.088 8.327 8.327 0 0 0 12.898-6.882 8.296 8.296 0 0 0-8.31-8.251c-4.58-.016-8.305 3.675-8.329 8.248zm3.902-4.584c.738-.813 2.423-.678 2.857.328l.151.362.177.431.024.059c.152.367.315.73.287.698l.096.135c.193.353.193.78.013 1.108-.03.06-.057.108-.088.157a1.18 1.18 0 0 1-.116.152c-.03.034-.145.14-.254.242a6.704 6.704 0 0 0 2.644 2.24c.1-.136.215-.3.298-.432.367-.579.872-.637 1.435-.42.123.047.406.18.867.401l.022.011.782.379.19.091c.085.041.15.075.213.115.152.094.275.204.369.365a.75.75 0 0 1 .084.215c.186.564.098 1.181-.209 1.613-1.489 2.63-5.026 2.264-7.987-.085-3.013-2.39-4.116-5.783-1.855-8.165zm1.48.922c.027.062-.322.035-.38.098-1.523 1.605-.728 4.055 1.687 5.97 2.343 1.858 4.846 2.117 5.789.46a.387.387 0 0 0 .07-.2l-.105-.049-.779-.378-.022-.01c-.23-.111-.424-.203-.56-.266-.152.221-.322.446-.438.576-.381.425-.888.488-1.375.244a8.18 8.18 0 0 1-3.685-3.195c-.303-.518-.172-.96.167-1.327l.055-.058c.089-.089.185-.18.259-.25-.083-.169-.185-.41-.34-.784l-.025-.06-.177-.433c-.064-.155-.107-.26-.142-.338z"/>
</svg>
