<svg xmlns="http://www.w3.org/2000/svg" width="16" height="16" viewBox="0 0 16 16">
    <g fill="#FFF" fill-rule="nonzero">
        <path d="M9.507 12.4h.286a2.82 2.82 0 0 0 2.58-1.447c.276-.412.314-.939.1-1.386a1.02 1.02 0 0 0-.486-.367l-.094-.047s-1.153-.566-1.393-.666a.8.8 0 0 0-1.027.286c-.113.167-.233.34-.32.454a5.513 5.513 0 0 1-2.38-2l.154-.14c.117-.098.21-.221.273-.36a.84.84 0 0 0 0-.794c-.04-.08-.2-.48-.36-.853l-.233-.56a1.1 1.1 0 0 0-.86-.667 1.453 1.453 0 0 0-1.334.387 3.427 3.427 0 0 0-.666 3.78 7.46 7.46 0 0 0 5.76 4.38zM5.16 4.967a.453.453 0 0 1 .3-.094.427.427 0 0 1 .213.047l.234.56c.14.34.286.667.36.853L6 6.593A.76.76 0 0 0 5.833 7.6 6.507 6.507 0 0 0 8.8 10.187a.787.787 0 0 0 1.02-.167c.12-.14.3-.387.407-.547.22.094.84.394 1.226.587l.107.053h.06a.793.793 0 0 1-.113.334 1.873 1.873 0 0 1-1.927.946 6.447 6.447 0 0 1-4.873-3.7 2.42 2.42 0 0 1 .453-2.726z"/>
        <path d="M.513 14.967a.5.5 0 0 0 .627.666l2.66-.906A8 8 0 0 0 16 8 8 8 0 1 0 0 8a7.833 7.833 0 0 0 1.373 4.447l-.86 2.52zM.993 8A7 7 0 1 1 8 14.94a7 7 0 0 1-3.853-1.147.5.5 0 0 0-.427-.06l-1.94.614.62-1.82a.5.5 0 0 0-.073-.467A6.847 6.847 0 0 1 .993 8z"/>
    </g>
</svg>
